<?xml version="1.0" encoding="UTF-8"?>
<svg id="b" data-name="Layer 2" xmlns="http://www.w3.org/2000/svg" width="304.852" height="862.512" viewBox="0 0 304.852 862.512">
  <g id="c" data-name="Layer 1">
    <path d="M115.647,612.549l-40.295-1.765c-4.161-.182-6.852-3.685-7.104-7.851-3.391-56.238-10.147-98.9-30.227-151.844-7.989-21.065-15.682-41.035-22.352-62.599C2.12,344.682-2.904,299.829,1.623,254.007c4.659-47.159,15.874-92.88,35.056-136.097C54.581,77.576,83.861,35.195,122.943,14.148c44.666-24.054,95.369-18.063,127.346,22.785,11.304,14.44,19.859,30.033,26.708,47.375,19.204,48.625,28.33,100.308,27.835,152.754-.335,35.535-7.099,69.074-20.209,101.674l-17.83,44.338c-12.921,32.129-21.336,65.229-23.686,100.003-1.359,20.103-.268,39.181,1.965,59.073l5.277,47.003c.443,3.944-1.475,7.215-5.504,8.131-42.332,9.628-84.952,14.924-129.199,15.263Z" fill="#3884ff"/>
    <path d="M180.993,862.419c-41.034,1.666-74.325-19.283-93.182-55.093-9.774-18.562-15.69-38.016-19.012-58.985-5.741-36.232-5.502-72.368-1.51-108.75.34-3.103,3.879-5.174,6.682-4.925,56.726,5.036,120-3.704,176.074-14.348,4.391-.833,7.756,1.683,9.137,6.047,12.621,39.887,18.809,81.589,15.985,123.641-1.534,22.85-6.759,44.269-17.194,63.939-15.564,29.337-43.859,47.129-76.98,48.475Z" fill="#3884ff"/>
  </g>
</svg>