<?xml version="1.0" encoding="UTF-8"?>
<svg id="b" data-name="Layer 2" xmlns="http://www.w3.org/2000/svg" width="304.846" height="862.518" viewBox="0 0 304.846 862.518">
  <g id="c" data-name="Layer 1">
    <path d="M177.538,612.394c-40.299-1.407-78.784-6.398-117.354-15.075-3.556-.8-6.291-3.484-5.853-7.271l3.473-30.074c2.516-21.788,4.654-42.755,4.314-64.902-.57-37.036-8.379-72.572-22.029-106.79l-20.571-51.568C-12.251,257.075-2.504,159.413,29.102,81.279c7.35-18.169,16.788-34.292,29.205-48.885C91.133-6.187,144.102-8.9,186.541,16.8c17.062,10.332,31.416,23.362,43.956,39.018,16.168,20.187,29.051,41.786,39.297,65.733,18.775,43.88,30.07,90.116,33.931,137.751,3.44,42.438-1.068,83.702-13.042,124.375l-24.029,67.884c-11.907,33.64-21.231,66.942-25.639,102.387l-4.719,49.162c-.366,3.813-2.783,7.414-6.693,7.544l-52.065,1.738Z" fill="#3884ff"/>
    <path d="M237.922,733.97c-3.734,33.726-13.587,68.567-35.393,94.487-20.102,23.894-49.167,35.818-80.419,33.853-28.418-1.786-53.255-15.403-69.305-38.925-35.556-52.109-25.927-138.341-7.239-196.556,1.697-5.285,4.908-7.415,10.321-6.397,56.528,10.626,118.142,19.222,175.299,14.129,3.133-.279,5.848,2.325,6.221,5.646,3.523,31.353,3.999,62.291.515,93.763Z" fill="#3884ff"/>
  </g>
</svg>