<?xml version="1.0"?>
<svg id="b" data-name="Layer 2" xmlns="http://www.w3.org/2000/svg" width="111.234mm" height="63.567mm" viewBox="0 0 315.31 180.19">
  <g id="c" data-name="Layer 1">
    <g>
      <g>
        <path d="M140.34,70.324c0-9.912,6.312-16.445,16.001-16.445,7.379,0,12.802,3.289,14.49,11.379.045.267-.089.444-.355.444h-7.334c-.222,0-.355-.134-.444-.355-.756-3.468-2.889-5.245-6.445-5.245-4.756,0-7.334,3.689-7.334,10.045,0,6.445,2.623,10.135,7.423,10.135,3.646,0,5.778-1.911,6.49-5.557.044-.222.178-.355.399-.355h7.468c.267,0,.4.178.355.489-1.733,8.09-6.934,11.646-14.624,11.646-9.823,0-16.09-6.801-16.09-16.18Z" fill="#fff"></path>
        <path d="M180.57,85.349c0,.222-.178.399-.4.399h-7.156c-.223,0-.4-.178-.4-.399l.178-10.979-.178-11.112c0-.222.178-.399.4-.399h7.111c.268,0,.4.133.4.399l-.178,3.29c1.822-2.578,4.578-3.867,7.734-3.867.267,0,.622.044.889.089.223.044.355.222.355.444v5.067c0,.267-.133.399-.399.399-.223-.044-.4-.044-.578-.044-4.756,0-7.956,2.756-7.778,8.045v8.668Z" fill="#fff"></path>
        <path d="M205.063,78.37c.089-.223.222-.355.444-.355h6.845c.267,0,.445.133.4.399-.667,3.956-4.623,7.956-11.334,7.956-7.646,0-12.18-4.934-12.18-12.001,0-7.378,4.712-12.135,11.912-12.135,7.734,0,12.046,4.757,12.18,13.335,0,.267-.178.4-.4.4h-15.734c.311,3.867,1.733,5.111,4.223,5.111,1.822,0,3.111-.8,3.645-2.711ZM197.374,71.347h7.601c-.134-2.178-1.334-4-3.646-4-2.044,0-3.422,1.111-3.955,4Z" fill="#fff"></path>
        <path d="M230.981,63.257c0-.267.089-.399.355-.399h7.289c.223,0,.4.178.4.399l-.134,11.112.134,10.979c0,.222-.178.399-.4.399h-7.111c-.267,0-.4-.133-.4-.399l.089-2.179c-1.6,1.912-3.867,3.022-6.756,3.022-6.49,0-9.957-5.155-9.957-11.823,0-6.623,4.001-11.956,10.312-11.956,2.667,0,4.756.933,6.268,2.666l-.089-1.822ZM231.248,74.414c.044-4.578-1.423-6.757-4.223-6.757-2.845-.044-4.4,2.045-4.4,6.534,0,4.667,1.6,6.846,4.312,6.801,2.711,0,4.267-2.089,4.312-6.578Z" fill="#fff"></path>
        <path d="M251.386,57.524l-.045,5.334h5.022c.223,0,.4.178.4.399v4.757c0,.222-.178.399-.4.399h-5.022l.045,9.69c0,2,1.021,2.488,2.222,2.488,1.156,0,1.956-.222,2.667-.399.267-.089.444.089.444.355v4.267c0,.223-.089.4-.311.489-1.512.533-3.156.934-4.756.934-4.356,0-8.268-2.178-8.268-7.734l.089-10.09h-2.623c-.222,0-.399-.178-.399-.399v-4.757c0-.222.178-.399.399-.399h2.578l-.044-5.334c0-.223.178-.4.399-.4h7.201c.222,0,.4.178.4.4Z" fill="#fff"></path>
        <path d="M266.501,55.034v5.645c0,.223-.178.4-.4.4h-7.334c-.223,0-.4-.178-.4-.4v-5.645c0-.223.178-.4.4-.4h7.334c.223,0,.4.178.4.4ZM266.501,85.349c0,.222-.178.399-.4.399h-7.289c-.223,0-.4-.178-.4-.399l.133-10.846-.133-11.246c0-.222.178-.399.4-.399h7.289c.223,0,.4.178.4.399l-.134,11.246.134,10.846Z" fill="#fff"></path>
        <path d="M284.415,85.837h-9.2c-.223,0-.356-.089-.445-.311l-7.512-22.225c-.089-.312.089-.444.355-.444h8.001c.223,0,.4.089.444.355l4.09,15.646,4.667-15.646c.045-.223.223-.355.444-.355h6.801c.267,0,.444.133.355.444l-7.556,22.225c-.09.222-.223.311-.445.311Z" fill="#fff"></path>
        <path d="M307.043,78.37c.089-.223.222-.355.444-.355h6.845c.267,0,.444.133.4.399-.667,3.956-4.623,7.956-11.335,7.956-7.645,0-12.179-4.934-12.179-12.001,0-7.378,4.712-12.135,11.912-12.135,7.734,0,12.046,4.757,12.18,13.335,0,.267-.178.4-.4.4h-15.734c.311,3.867,1.733,5.111,4.222,5.111,1.823,0,3.112-.8,3.646-2.711ZM299.353,71.347h7.601c-.134-2.178-1.334-4-3.646-4-2.044,0-3.422,1.111-3.955,4Z" fill="#fff"></path>
      </g>
      <g>
        <path d="M140.149,110.389c-.045-.267.089-.399.355-.399h7.734c.222,0,.355.133.399.355.489,3.066,2.267,4.711,6.268,4.711,3.423,0,5.289-.933,5.289-3.2,0-5.956-19.469-.978-19.469-13.601,0-5.957,4.579-9.823,13.023-9.823,7.379,0,12.713,2.711,13.824,9.467.044.267-.134.445-.4.445h-7.689c-.223,0-.4-.134-.444-.4-.312-2.178-2.223-3.423-5.423-3.423-2.667,0-4.623.845-4.623,2.89,0,5.601,19.603.889,19.603,13.29,0,6.667-5.156,10.401-13.824,10.401-8.489,0-13.912-3.646-14.623-10.713Z" fill="#fff"></path>
        <path d="M180.557,92.076l-.045,5.334h5.022c.223,0,.4.178.4.399v4.757c0,.222-.178.399-.4.399h-5.022l.045,9.69c0,2,1.021,2.488,2.222,2.488,1.156,0,1.956-.222,2.667-.399.267-.089.444.089.444.355v4.267c0,.223-.089.4-.311.489-1.512.533-3.156.934-4.756.934-4.356,0-8.268-2.178-8.268-7.734l.089-10.09h-2.623c-.222,0-.399-.178-.399-.399v-4.757c0-.222.178-.399.399-.399h2.578l-.044-5.334c0-.223.178-.4.399-.4h7.201c.222,0,.4.178.4.4Z" fill="#fff"></path>
        <path d="M186.337,108.922c0-7.334,4.489-12.135,12.224-12.135s12.135,4.623,12.135,11.957-4.4,12.179-12.135,12.179-12.224-4.667-12.224-12.001ZM202.516,108.922c0-4.845-1.334-6.89-4-6.89-2.801.089-4.045,2.09-4.045,6.935s1.333,6.667,4.089,6.667c2.667,0,3.956-1.778,3.956-6.712Z" fill="#fff"></path>
        <path d="M220.432,119.901c0,.222-.178.399-.399.399h-7.379c-.223,0-.4-.178-.4-.399l.134-10.891v-11.201c0-.222.178-.399.4-.399h6.889c.268,0,.4.133.4.399l-.133,2.356c1.556-2.179,4.267-3.289,7.245-3.289,5.111,0,8.134,3.422,8.134,8.667v5.022l.133,9.335c0,.222-.178.399-.399.399h-7.334c-.223,0-.4-.178-.4-.399l.134-9.335v-4.444c0-2.223-1.2-3.467-2.845-3.467-2.356,0-4.312,2.533-4.312,7.245v.666l.133,9.335Z" fill="#fff"></path>
        <path d="M252.707,112.923c.089-.223.222-.355.444-.355h6.845c.267,0,.444.133.4.399-.667,3.956-4.623,7.956-11.335,7.956-7.645,0-12.179-4.934-12.179-12.001,0-7.378,4.712-12.135,11.912-12.135,7.734,0,12.046,4.757,12.18,13.335,0,.267-.178.4-.4.4h-15.734c.311,3.867,1.733,5.111,4.222,5.111,1.823,0,3.112-.8,3.646-2.711ZM245.017,105.899h7.601c-.134-2.178-1.334-4-3.646-4-2.044,0-3.422,1.111-3.955,4Z" fill="#fff"></path>
      </g>
      <path d="M127.53,116.54l-53.73-52.9h53.48L63.64,0,0,63.63l63.88,63.65v52.91l63.65-63.65ZM53.64,63.63c3.89-3.89,6.11-6.11,10-9.99l.1,19.86c-3.79-3.78-6.27-6.04-10.1-9.87ZM63.9,106.54c3.88,3.89,6.11,6.12,10,10-3.89,3.89-6.13,6.12-10,9.99v-19.99Z" fill="#fff"></path>
    </g>
  </g>
</svg>
